<svg xmlns="http://www.w3.org/2000/svg" xmlns:xlink="http://www.w3.org/1999/xlink" width="80" zoomAndPan="magnify" viewBox="0 0 60 30.000001" height="40" preserveAspectRatio="xMidYMid meet" version="1.0"><defs><g/><clipPath id="83ba225688"><path d="M 0.96875 0 L 59.03125 0 L 59.03125 29.03125 L 0.96875 29.03125 Z M 0.96875 0 " clip-rule="nonzero"/></clipPath><clipPath id="04fb398b95"><path d="M 39.695312 14.90625 L 40.445312 14.90625 L 40.445312 15.660156 L 39.695312 15.660156 Z M 39.695312 14.90625 " clip-rule="nonzero"/></clipPath><clipPath id="5452d09a98"><path d="M 40.070312 14.90625 C 39.863281 14.90625 39.695312 15.078125 39.695312 15.285156 C 39.695312 15.492188 39.863281 15.660156 40.070312 15.660156 C 40.277344 15.660156 40.445312 15.492188 40.445312 15.285156 C 40.445312 15.078125 40.277344 14.90625 40.070312 14.90625 Z M 40.070312 14.90625 " clip-rule="nonzero"/></clipPath><clipPath id="69eea194c5"><path d="M 19.554688 12.644531 L 23.183594 12.644531 L 23.183594 16.273438 L 19.554688 16.273438 Z M 19.554688 12.644531 " clip-rule="nonzero"/></clipPath><clipPath id="4ef9879bdc"><path d="M 21.636719 14.335938 L 20.019531 14.335938 C 19.953125 14.335938 19.910156 14.277344 19.925781 14.21875 L 20.371094 12.710938 C 20.382812 12.671875 20.421875 12.648438 20.460938 12.648438 L 22.082031 12.648438 C 22.144531 12.648438 22.191406 12.703125 22.171875 12.761719 L 21.730469 14.269531 C 21.71875 14.308594 21.679688 14.335938 21.636719 14.335938 Z M 20.585938 15.472656 L 20.816406 14.695312 C 20.832031 14.640625 20.785156 14.582031 20.722656 14.582031 L 19.890625 14.582031 C 19.847656 14.582031 19.8125 14.609375 19.800781 14.648438 L 19.570312 15.425781 C 19.554688 15.480469 19.597656 15.539062 19.660156 15.539062 L 20.496094 15.539062 C 20.535156 15.539062 20.574219 15.511719 20.585938 15.472656 Z M 21.007812 14.648438 L 20.5625 16.15625 C 20.546875 16.214844 20.589844 16.269531 20.652344 16.269531 L 22.273438 16.269531 C 22.316406 16.269531 22.351562 16.242188 22.363281 16.203125 L 22.808594 14.695312 C 22.828125 14.640625 22.78125 14.582031 22.71875 14.582031 L 21.097656 14.582031 C 21.054688 14.582031 21.019531 14.609375 21.007812 14.648438 Z M 22.148438 13.445312 L 21.921875 14.21875 C 21.90625 14.277344 21.949219 14.335938 22.011719 14.335938 L 22.84375 14.335938 C 22.886719 14.335938 22.925781 14.308594 22.9375 14.269531 L 23.164062 13.492188 C 23.183594 13.433594 23.136719 13.378906 23.074219 13.378906 L 22.242188 13.378906 C 22.199219 13.378906 22.160156 13.40625 22.148438 13.445312 Z M 22.148438 13.445312 " clip-rule="nonzero"/></clipPath><linearGradient x1="114.296501" gradientTransform="matrix(0.00761762, 0, 0, 0.00724828, 19.566641, 12.646488)" y1="-47.633826" x2="358.610925" gradientUnits="userSpaceOnUse" y2="547.607401" id="d1a93134b4"><stop stop-opacity="1" stop-color="rgb(0%, 98.799133%, 65.899658%)" offset="0"/><stop stop-opacity="1" stop-color="rgb(0%, 98.799133%, 65.899658%)" offset="0.0625"/><stop stop-opacity="1" stop-color="rgb(0.0213623%, 98.773193%, 65.965271%)" offset="0.09375"/><stop stop-opacity="1" stop-color="rgb(0.100708%, 98.677063%, 66.210938%)" offset="0.101563"/><stop stop-opacity="1" stop-color="rgb(0.216675%, 98.536682%, 66.571045%)" offset="0.109375"/><stop stop-opacity="1" stop-color="rgb(0.332642%, 98.396301%, 66.929626%)" offset="0.117188"/><stop stop-opacity="1" stop-color="rgb(0.448608%, 98.25592%, 67.289734%)" offset="0.125"/><stop stop-opacity="1" stop-color="rgb(0.564575%, 98.117065%, 67.649841%)" offset="0.132812"/><stop stop-opacity="1" stop-color="rgb(0.679016%, 97.976685%, 68.008423%)" offset="0.140625"/><stop stop-opacity="1" stop-color="rgb(0.794983%, 97.836304%, 68.36853%)" offset="0.148438"/><stop stop-opacity="1" stop-color="rgb(0.91095%, 97.695923%, 68.727112%)" offset="0.15625"/><stop stop-opacity="1" stop-color="rgb(1.026917%, 97.555542%, 69.087219%)" offset="0.164063"/><stop stop-opacity="1" stop-color="rgb(1.142883%, 97.415161%, 69.445801%)" offset="0.171875"/><stop stop-opacity="1" stop-color="rgb(1.25885%, 97.27478%, 69.805908%)" offset="0.179688"/><stop stop-opacity="1" stop-color="rgb(1.374817%, 97.135925%, 70.16449%)" offset="0.1875"/><stop stop-opacity="1" stop-color="rgb(1.490784%, 96.995544%, 70.524597%)" offset="0.195312"/><stop stop-opacity="1" stop-color="rgb(1.60675%, 96.855164%, 70.883179%)" offset="0.203125"/><stop stop-opacity="1" stop-color="rgb(1.722717%, 96.714783%, 71.243286%)" offset="0.210938"/><stop stop-opacity="1" stop-color="rgb(1.838684%, 96.574402%, 71.603394%)" offset="0.21875"/><stop stop-opacity="1" stop-color="rgb(1.954651%, 96.434021%, 71.961975%)" offset="0.226562"/><stop stop-opacity="1" stop-color="rgb(2.070618%, 96.29364%, 72.322083%)" offset="0.234375"/><stop stop-opacity="1" stop-color="rgb(2.186584%, 96.153259%, 72.680664%)" offset="0.242188"/><stop stop-opacity="1" stop-color="rgb(2.302551%, 96.014404%, 73.040771%)" offset="0.25"/><stop stop-opacity="1" stop-color="rgb(2.418518%, 95.874023%, 73.399353%)" offset="0.257812"/><stop stop-opacity="1" stop-color="rgb(2.534485%, 95.733643%, 73.75946%)" offset="0.265625"/><stop stop-opacity="1" stop-color="rgb(2.650452%, 95.593262%, 74.118042%)" offset="0.273438"/><stop stop-opacity="1" stop-color="rgb(2.766418%, 95.452881%, 74.478149%)" offset="0.281113"/><stop stop-opacity="1" stop-color="rgb(2.824402%, 95.38269%, 74.658203%)" offset="0.28125"/><stop stop-opacity="1" stop-color="rgb(2.882385%, 95.3125%, 74.836731%)" offset="0.289062"/><stop stop-opacity="1" stop-color="rgb(2.998352%, 95.172119%, 75.196838%)" offset="0.296875"/><stop stop-opacity="1" stop-color="rgb(3.114319%, 95.031738%, 75.556946%)" offset="0.304688"/><stop stop-opacity="1" stop-color="rgb(3.230286%, 94.892883%, 75.915527%)" offset="0.3125"/><stop stop-opacity="1" stop-color="rgb(3.346252%, 94.752502%, 76.275635%)" offset="0.320313"/><stop stop-opacity="1" stop-color="rgb(3.462219%, 94.612122%, 76.634216%)" offset="0.328125"/><stop stop-opacity="1" stop-color="rgb(3.578186%, 94.471741%, 76.994324%)" offset="0.335938"/><stop stop-opacity="1" stop-color="rgb(3.694153%, 94.33136%, 77.352905%)" offset="0.34375"/><stop stop-opacity="1" stop-color="rgb(3.81012%, 94.190979%, 77.713013%)" offset="0.351562"/><stop stop-opacity="1" stop-color="rgb(3.926086%, 94.050598%, 78.071594%)" offset="0.359375"/><stop stop-opacity="1" stop-color="rgb(4.042053%, 93.911743%, 78.431702%)" offset="0.367187"/><stop stop-opacity="1" stop-color="rgb(4.15802%, 93.771362%, 78.790283%)" offset="0.375"/><stop stop-opacity="1" stop-color="rgb(4.273987%, 93.630981%, 79.150391%)" offset="0.382812"/><stop stop-opacity="1" stop-color="rgb(4.389954%, 93.490601%, 79.510498%)" offset="0.390625"/><stop stop-opacity="1" stop-color="rgb(4.50592%, 93.35022%, 79.86908%)" offset="0.398437"/><stop stop-opacity="1" stop-color="rgb(4.621887%, 93.209839%, 80.229187%)" offset="0.40625"/><stop stop-opacity="1" stop-color="rgb(4.737854%, 93.069458%, 80.587769%)" offset="0.414062"/><stop stop-opacity="1" stop-color="rgb(4.853821%, 92.929077%, 80.947876%)" offset="0.421875"/><stop stop-opacity="1" stop-color="rgb(4.969788%, 92.790222%, 81.306458%)" offset="0.429688"/><stop stop-opacity="1" stop-color="rgb(5.085754%, 92.649841%, 81.666565%)" offset="0.4375"/><stop stop-opacity="1" stop-color="rgb(5.201721%, 92.50946%, 82.025146%)" offset="0.445312"/><stop stop-opacity="1" stop-color="rgb(5.317688%, 92.36908%, 82.385254%)" offset="0.453125"/><stop stop-opacity="1" stop-color="rgb(5.433655%, 92.228699%, 82.743835%)" offset="0.460938"/><stop stop-opacity="1" stop-color="rgb(5.549622%, 92.088318%, 83.103943%)" offset="0.46875"/><stop stop-opacity="1" stop-color="rgb(5.665588%, 91.947937%, 83.46405%)" offset="0.476563"/><stop stop-opacity="1" stop-color="rgb(5.781555%, 91.807556%, 83.822632%)" offset="0.484375"/><stop stop-opacity="1" stop-color="rgb(5.897522%, 91.668701%, 84.182739%)" offset="0.492188"/><stop stop-opacity="1" stop-color="rgb(6.013489%, 91.52832%, 84.541321%)" offset="0.5"/><stop stop-opacity="1" stop-color="rgb(6.129456%, 91.387939%, 84.901428%)" offset="0.507812"/><stop stop-opacity="1" stop-color="rgb(6.245422%, 91.247559%, 85.26001%)" offset="0.515625"/><stop stop-opacity="1" stop-color="rgb(6.361389%, 91.107178%, 85.620117%)" offset="0.523438"/><stop stop-opacity="1" stop-color="rgb(6.477356%, 90.966797%, 85.978699%)" offset="0.53125"/><stop stop-opacity="1" stop-color="rgb(6.593323%, 90.826416%, 86.338806%)" offset="0.539062"/><stop stop-opacity="1" stop-color="rgb(6.70929%, 90.687561%, 86.697388%)" offset="0.546875"/><stop stop-opacity="1" stop-color="rgb(6.825256%, 90.54718%, 87.057495%)" offset="0.554688"/><stop stop-opacity="1" stop-color="rgb(6.941223%, 90.406799%, 87.417603%)" offset="0.5625"/><stop stop-opacity="1" stop-color="rgb(7.05719%, 90.266418%, 87.776184%)" offset="0.570313"/><stop stop-opacity="1" stop-color="rgb(7.173157%, 90.126038%, 88.136292%)" offset="0.578125"/><stop stop-opacity="1" stop-color="rgb(7.287598%, 89.985657%, 88.494873%)" offset="0.585938"/><stop stop-opacity="1" stop-color="rgb(7.403564%, 89.845276%, 88.85498%)" offset="0.59375"/><stop stop-opacity="1" stop-color="rgb(7.519531%, 89.704895%, 89.213562%)" offset="0.601562"/><stop stop-opacity="1" stop-color="rgb(7.635498%, 89.56604%, 89.573669%)" offset="0.609375"/><stop stop-opacity="1" stop-color="rgb(7.751465%, 89.425659%, 89.932251%)" offset="0.617188"/><stop stop-opacity="1" stop-color="rgb(7.867432%, 89.285278%, 90.292358%)" offset="0.625"/><stop stop-opacity="1" stop-color="rgb(7.983398%, 89.144897%, 90.65094%)" offset="0.632812"/><stop stop-opacity="1" stop-color="rgb(8.099365%, 89.004517%, 91.011047%)" offset="0.640625"/><stop stop-opacity="1" stop-color="rgb(8.215332%, 88.864136%, 91.371155%)" offset="0.648438"/><stop stop-opacity="1" stop-color="rgb(8.331299%, 88.723755%, 91.729736%)" offset="0.65625"/><stop stop-opacity="1" stop-color="rgb(8.447266%, 88.583374%, 92.089844%)" offset="0.664062"/><stop stop-opacity="1" stop-color="rgb(8.563232%, 88.444519%, 92.448425%)" offset="0.671875"/><stop stop-opacity="1" stop-color="rgb(8.679199%, 88.304138%, 92.808533%)" offset="0.679688"/><stop stop-opacity="1" stop-color="rgb(8.795166%, 88.163757%, 93.167114%)" offset="0.6875"/><stop stop-opacity="1" stop-color="rgb(8.911133%, 88.023376%, 93.527222%)" offset="0.695312"/><stop stop-opacity="1" stop-color="rgb(9.0271%, 87.882996%, 93.885803%)" offset="0.703125"/><stop stop-opacity="1" stop-color="rgb(9.143066%, 87.742615%, 94.245911%)" offset="0.710938"/><stop stop-opacity="1" stop-color="rgb(9.259033%, 87.602234%, 94.604492%)" offset="0.71875"/><stop stop-opacity="1" stop-color="rgb(9.375%, 87.463379%, 94.9646%)" offset="0.718887"/><stop stop-opacity="1" stop-color="rgb(9.432983%, 87.393188%, 95.144653%)" offset="0.726562"/><stop stop-opacity="1" stop-color="rgb(9.490967%, 87.322998%, 95.324707%)" offset="0.734375"/><stop stop-opacity="1" stop-color="rgb(9.606934%, 87.182617%, 95.683289%)" offset="0.742187"/><stop stop-opacity="1" stop-color="rgb(9.7229%, 87.042236%, 96.043396%)" offset="0.75"/><stop stop-opacity="1" stop-color="rgb(9.838867%, 86.901855%, 96.401978%)" offset="0.757812"/><stop stop-opacity="1" stop-color="rgb(9.954834%, 86.761475%, 96.762085%)" offset="0.765625"/><stop stop-opacity="1" stop-color="rgb(10.070801%, 86.621094%, 97.120667%)" offset="0.773438"/><stop stop-opacity="1" stop-color="rgb(10.186768%, 86.480713%, 97.480774%)" offset="0.78125"/><stop stop-opacity="1" stop-color="rgb(10.302734%, 86.341858%, 97.839355%)" offset="0.789062"/><stop stop-opacity="1" stop-color="rgb(10.418701%, 86.201477%, 98.199463%)" offset="0.796875"/><stop stop-opacity="1" stop-color="rgb(10.534668%, 86.061096%, 98.558044%)" offset="0.804687"/><stop stop-opacity="1" stop-color="rgb(10.650635%, 85.920715%, 98.918152%)" offset="0.8125"/><stop stop-opacity="1" stop-color="rgb(10.766602%, 85.780334%, 99.278259%)" offset="0.820312"/><stop stop-opacity="1" stop-color="rgb(10.882568%, 85.639954%, 99.636841%)" offset="0.828125"/><stop stop-opacity="1" stop-color="rgb(10.969543%, 85.534668%, 99.908447%)" offset="0.84375"/><stop stop-opacity="1" stop-color="rgb(10.998535%, 85.499573%, 100%)" offset="0.875"/><stop stop-opacity="1" stop-color="rgb(10.998535%, 85.499573%, 100%)" offset="1"/></linearGradient></defs><g clip-path="url(#83ba225688)"><path fill="#ffffff" d="M 0.96875 0 L 59.03125 0 L 59.03125 29.03125 L 0.96875 29.03125 Z M 0.96875 0 " fill-opacity="1" fill-rule="nonzero"/><path fill="#292929" d="M 0.96875 0 L 59.03125 0 L 59.03125 29.03125 L 0.96875 29.03125 Z M 0.96875 0 " fill-opacity="1" fill-rule="nonzero"/></g><g fill="#ffffff" fill-opacity="1"><g transform="translate(24.584453, 15.617386)"><g><path d="M 0.21875 0.015625 C 0.195312 0.015625 0.171875 0.00390625 0.140625 -0.015625 C 0.117188 -0.0351562 0.109375 -0.0625 0.109375 -0.09375 C 0.109375 -0.125 0.117188 -0.148438 0.140625 -0.171875 L 0.734375 -0.90625 L 0.140625 -1.640625 C 0.128906 -1.660156 0.125 -1.6875 0.125 -1.71875 C 0.125 -1.75 0.132812 -1.773438 0.15625 -1.796875 C 0.175781 -1.816406 0.203125 -1.828125 0.234375 -1.828125 C 0.253906 -1.828125 0.269531 -1.820312 0.28125 -1.8125 C 0.300781 -1.8125 0.316406 -1.800781 0.328125 -1.78125 L 0.875 -1.09375 L 1.4375 -1.796875 C 1.457031 -1.816406 1.484375 -1.828125 1.515625 -1.828125 C 1.546875 -1.828125 1.570312 -1.816406 1.59375 -1.796875 C 1.625 -1.773438 1.640625 -1.75 1.640625 -1.71875 C 1.640625 -1.695312 1.628906 -1.675781 1.609375 -1.65625 L 1.015625 -0.90625 L 1.609375 -0.171875 C 1.628906 -0.148438 1.640625 -0.128906 1.640625 -0.109375 C 1.640625 -0.078125 1.628906 -0.046875 1.609375 -0.015625 C 1.585938 0.00390625 1.554688 0.015625 1.515625 0.015625 C 1.484375 0.015625 1.453125 0 1.421875 -0.03125 L 0.859375 -0.734375 L 0.3125 -0.03125 C 0.289062 0 0.257812 0.015625 0.21875 0.015625 Z M 0.21875 0.015625 "/></g></g></g><g fill="#ffffff" fill-opacity="1"><g transform="translate(26.335422, 15.617386)"><g><path d="M 0.796875 0.015625 C 0.765625 0.015625 0.734375 0.00390625 0.703125 -0.015625 C 0.679688 -0.046875 0.671875 -0.078125 0.671875 -0.109375 L 0.671875 -1.59375 L 0.140625 -1.59375 C 0.109375 -1.59375 0.0820312 -1.601562 0.0625 -1.625 C 0.0390625 -1.644531 0.03125 -1.671875 0.03125 -1.703125 C 0.03125 -1.734375 0.0390625 -1.757812 0.0625 -1.78125 C 0.0820312 -1.8125 0.109375 -1.828125 0.140625 -1.828125 L 1.4375 -1.828125 C 1.46875 -1.828125 1.492188 -1.8125 1.515625 -1.78125 C 1.546875 -1.757812 1.5625 -1.734375 1.5625 -1.703125 C 1.5625 -1.671875 1.546875 -1.644531 1.515625 -1.625 C 1.492188 -1.601562 1.46875 -1.59375 1.4375 -1.59375 L 0.90625 -1.59375 L 0.90625 -0.109375 C 0.90625 -0.078125 0.894531 -0.046875 0.875 -0.015625 C 0.851562 0.00390625 0.828125 0.015625 0.796875 0.015625 Z M 0.796875 0.015625 "/></g></g></g><g fill="#ffffff" fill-opacity="1"><g transform="translate(27.924602, 15.617386)"><g><path d="M 0.828125 0.015625 C 0.796875 0.015625 0.769531 0.00390625 0.75 -0.015625 C 0.726562 -0.046875 0.71875 -0.078125 0.71875 -0.109375 L 0.71875 -0.765625 L 0.09375 -1.640625 C 0.0820312 -1.660156 0.078125 -1.6875 0.078125 -1.71875 C 0.078125 -1.75 0.0859375 -1.773438 0.109375 -1.796875 C 0.128906 -1.816406 0.15625 -1.828125 0.1875 -1.828125 C 0.226562 -1.828125 0.265625 -1.8125 0.296875 -1.78125 L 0.828125 -0.984375 L 1.375 -1.78125 C 1.40625 -1.8125 1.441406 -1.828125 1.484375 -1.828125 C 1.515625 -1.828125 1.539062 -1.816406 1.5625 -1.796875 C 1.59375 -1.773438 1.601562 -1.75 1.59375 -1.71875 C 1.59375 -1.6875 1.585938 -1.660156 1.578125 -1.640625 L 0.953125 -0.765625 L 0.953125 -0.109375 C 0.953125 -0.078125 0.941406 -0.046875 0.921875 -0.015625 C 0.898438 0.00390625 0.867188 0.015625 0.828125 0.015625 Z M 0.828125 0.015625 "/></g></g></g><g fill="#ffffff" fill-opacity="1"><g transform="translate(29.592068, 15.617386)"><g/></g></g><g fill="#ffffff" fill-opacity="1"><g transform="translate(30.270536, 15.617386)"><g><path d="M 0.375 0.015625 C 0.34375 0.015625 0.3125 0.00390625 0.28125 -0.015625 C 0.257812 -0.046875 0.25 -0.078125 0.25 -0.109375 L 0.25 -1.703125 C 0.25 -1.734375 0.257812 -1.757812 0.28125 -1.78125 C 0.3125 -1.8125 0.34375 -1.828125 0.375 -1.828125 L 0.96875 -1.828125 C 1.132812 -1.828125 1.269531 -1.796875 1.375 -1.734375 C 1.476562 -1.679688 1.550781 -1.609375 1.59375 -1.515625 C 1.632812 -1.429688 1.65625 -1.335938 1.65625 -1.234375 C 1.65625 -1.140625 1.632812 -1.046875 1.59375 -0.953125 C 1.550781 -0.867188 1.476562 -0.796875 1.375 -0.734375 C 1.269531 -0.679688 1.132812 -0.65625 0.96875 -0.65625 L 0.484375 -0.65625 L 0.484375 -0.109375 C 0.484375 -0.078125 0.472656 -0.046875 0.453125 -0.015625 C 0.429688 0.00390625 0.40625 0.015625 0.375 0.015625 Z M 0.9375 -0.890625 C 1.113281 -0.890625 1.238281 -0.921875 1.3125 -0.984375 C 1.382812 -1.054688 1.421875 -1.140625 1.421875 -1.234375 C 1.421875 -1.335938 1.382812 -1.421875 1.3125 -1.484375 C 1.238281 -1.554688 1.113281 -1.59375 0.9375 -1.59375 L 0.484375 -1.59375 L 0.484375 -0.890625 Z M 0.9375 -0.890625 "/></g></g></g><g fill="#ffffff" fill-opacity="1"><g transform="translate(32.024114, 15.617386)"><g><path d="M 0.25 0.015625 C 0.21875 0.015625 0.1875 0.00390625 0.15625 -0.015625 C 0.132812 -0.046875 0.125 -0.078125 0.125 -0.109375 C 0.125 -0.117188 0.128906 -0.132812 0.140625 -0.15625 L 0.8125 -1.734375 C 0.820312 -1.765625 0.835938 -1.785156 0.859375 -1.796875 C 0.890625 -1.816406 0.921875 -1.828125 0.953125 -1.828125 L 0.984375 -1.828125 C 1.023438 -1.828125 1.054688 -1.816406 1.078125 -1.796875 C 1.097656 -1.785156 1.117188 -1.765625 1.140625 -1.734375 L 1.796875 -0.15625 C 1.804688 -0.132812 1.8125 -0.117188 1.8125 -0.109375 C 1.8125 -0.078125 1.800781 -0.046875 1.78125 -0.015625 C 1.757812 0.00390625 1.734375 0.015625 1.703125 0.015625 C 1.671875 0.015625 1.644531 0.0078125 1.625 0 C 1.613281 -0.0195312 1.601562 -0.0390625 1.59375 -0.0625 L 1.421875 -0.46875 L 0.53125 -0.46875 L 0.359375 -0.0625 C 0.347656 -0.0390625 0.332031 -0.0195312 0.3125 0 C 0.289062 0.0078125 0.269531 0.015625 0.25 0.015625 Z M 0.625 -0.6875 L 1.328125 -0.6875 L 0.96875 -1.53125 Z M 0.625 -0.6875 "/></g></g></g><g fill="#ffffff" fill-opacity="1"><g transform="translate(33.970795, 15.617386)"><g><path d="M 0.375 0.015625 C 0.34375 0.015625 0.3125 0.00390625 0.28125 -0.015625 C 0.257812 -0.046875 0.25 -0.078125 0.25 -0.109375 L 0.25 -1.65625 C 0.25 -1.707031 0.265625 -1.75 0.296875 -1.78125 C 0.335938 -1.8125 0.378906 -1.828125 0.421875 -1.828125 L 0.453125 -1.828125 C 0.515625 -1.828125 0.5625 -1.800781 0.59375 -1.75 L 1.609375 -0.3125 L 1.609375 -1.71875 C 1.609375 -1.75 1.617188 -1.773438 1.640625 -1.796875 C 1.660156 -1.816406 1.6875 -1.828125 1.71875 -1.828125 C 1.75 -1.828125 1.773438 -1.816406 1.796875 -1.796875 C 1.828125 -1.773438 1.84375 -1.75 1.84375 -1.71875 L 1.84375 -0.15625 C 1.84375 -0.113281 1.820312 -0.0703125 1.78125 -0.03125 C 1.75 0 1.710938 0.015625 1.671875 0.015625 L 1.640625 0.015625 C 1.609375 0.015625 1.582031 0.0078125 1.5625 0 C 1.539062 -0.0195312 1.519531 -0.0390625 1.5 -0.0625 L 0.484375 -1.515625 L 0.484375 -0.109375 C 0.484375 -0.078125 0.472656 -0.046875 0.453125 -0.015625 C 0.429688 0.00390625 0.40625 0.015625 0.375 0.015625 Z M 0.375 0.015625 "/></g></g></g><g fill="#ffffff" fill-opacity="1"><g transform="translate(36.066216, 15.617386)"><g><path d="M 0.375 0 C 0.34375 0 0.3125 -0.0078125 0.28125 -0.03125 C 0.257812 -0.0507812 0.25 -0.0820312 0.25 -0.125 L 0.25 -1.703125 C 0.25 -1.734375 0.257812 -1.757812 0.28125 -1.78125 C 0.3125 -1.8125 0.34375 -1.828125 0.375 -1.828125 L 1.421875 -1.828125 C 1.453125 -1.828125 1.476562 -1.8125 1.5 -1.78125 C 1.519531 -1.757812 1.53125 -1.734375 1.53125 -1.703125 C 1.53125 -1.671875 1.519531 -1.644531 1.5 -1.625 C 1.476562 -1.601562 1.453125 -1.59375 1.421875 -1.59375 L 0.484375 -1.59375 L 0.484375 -1.015625 L 1.328125 -1.015625 C 1.359375 -1.015625 1.382812 -1.003906 1.40625 -0.984375 C 1.425781 -0.960938 1.4375 -0.9375 1.4375 -0.90625 C 1.4375 -0.875 1.425781 -0.847656 1.40625 -0.828125 C 1.382812 -0.804688 1.359375 -0.796875 1.328125 -0.796875 L 0.484375 -0.796875 L 0.484375 -0.21875 L 1.421875 -0.21875 C 1.453125 -0.21875 1.476562 -0.207031 1.5 -0.1875 C 1.519531 -0.164062 1.53125 -0.140625 1.53125 -0.109375 C 1.53125 -0.078125 1.519531 -0.0507812 1.5 -0.03125 C 1.476562 -0.0078125 1.453125 0 1.421875 0 Z M 0.375 0 "/></g></g></g><g fill="#ffffff" fill-opacity="1"><g transform="translate(37.731072, 15.617386)"><g><path d="M 0.421875 0 C 0.367188 0 0.328125 -0.015625 0.296875 -0.046875 C 0.265625 -0.078125 0.25 -0.117188 0.25 -0.171875 L 0.25 -1.71875 C 0.25 -1.75 0.257812 -1.773438 0.28125 -1.796875 C 0.3125 -1.816406 0.34375 -1.828125 0.375 -1.828125 C 0.40625 -1.828125 0.429688 -1.816406 0.453125 -1.796875 C 0.472656 -1.773438 0.484375 -1.75 0.484375 -1.71875 L 0.484375 -0.234375 L 1.34375 -0.234375 C 1.375 -0.234375 1.398438 -0.222656 1.421875 -0.203125 C 1.453125 -0.179688 1.46875 -0.15625 1.46875 -0.125 C 1.46875 -0.0820312 1.453125 -0.0507812 1.421875 -0.03125 C 1.398438 -0.0078125 1.375 0 1.34375 0 Z M 0.421875 0 "/></g></g></g><g clip-path="url(#04fb398b95)"><g clip-path="url(#5452d09a98)"><path fill="#00faa8" d="M 39.695312 14.90625 L 40.445312 14.90625 L 40.445312 15.660156 L 39.695312 15.660156 Z M 39.695312 14.90625 " fill-opacity="1" fill-rule="nonzero"/></g></g><g clip-path="url(#69eea194c5)"><g clip-path="url(#4ef9879bdc)"><path fill="url(#d1a93134b4)" d="M 19.554688 12.648438 L 19.554688 16.269531 L 23.183594 16.269531 L 23.183594 12.648438 Z M 19.554688 12.648438 " fill-rule="nonzero"/></g></g></svg>