<svg xmlns="http://www.w3.org/2000/svg" xmlns:xlink="http://www.w3.org/1999/xlink" width="80" zoomAndPan="magnify" viewBox="0 0 60 30.000001" height="40" preserveAspectRatio="xMidYMid meet" version="1.0"><defs><g/><clipPath id="9a4996eb5b"><path d="M 0.96875 0 L 59.03125 0 L 59.03125 29.03125 L 0.96875 29.03125 Z M 0.96875 0 " clip-rule="nonzero"/></clipPath><clipPath id="85b17c4b90"><path d="M 36 10 L 48 10 L 48 19 L 36 19 Z M 36 10 " clip-rule="nonzero"/></clipPath><clipPath id="8a91f998dc"><path d="M 36.382812 12.066406 L 46.960938 9.503906 L 48.671875 16.558594 L 38.089844 19.121094 Z M 36.382812 12.066406 " clip-rule="nonzero"/></clipPath><clipPath id="96bcce3104"><path d="M 36.382812 12.066406 L 46.960938 9.503906 L 48.671875 16.558594 L 38.089844 19.121094 Z M 36.382812 12.066406 " clip-rule="nonzero"/></clipPath><clipPath id="d249af04af"><path d="M 11.15625 13.050781 L 13.332031 13.050781 L 13.332031 15 L 11.15625 15 Z M 11.15625 13.050781 " clip-rule="nonzero"/></clipPath></defs><g clip-path="url(#9a4996eb5b)"><path fill="#ffffff" d="M 0.96875 0 L 59.03125 0 L 59.03125 29.03125 L 0.96875 29.03125 Z M 0.96875 0 " fill-opacity="1" fill-rule="nonzero"/><path fill="#000000" d="M 0.96875 0 L 59.03125 0 L 59.03125 29.03125 L 0.96875 29.03125 Z M 0.96875 0 " fill-opacity="1" fill-rule="nonzero"/></g><g clip-path="url(#85b17c4b90)"><g clip-path="url(#8a91f998dc)"><g clip-path="url(#96bcce3104)"><path fill="#9cff1e" d="M 47.292969 13.0625 C 47.328125 13.210938 47.410156 13.296875 47.476562 13.34375 C 47.375 13.480469 47.277344 13.617188 47.175781 13.75 C 47.066406 13.667969 46.886719 13.492188 46.808594 13.195312 C 46.621094 13.445312 46.433594 13.691406 46.242188 13.933594 C 46.027344 14.214844 45.808594 14.492188 45.582031 14.769531 C 45.359375 15.042969 45.132812 15.316406 44.902344 15.585938 C 44.671875 15.855469 44.433594 16.121094 44.195312 16.382812 C 43.953125 16.644531 43.707031 16.898438 43.449219 17.148438 C 43.195312 17.402344 42.929688 17.644531 42.648438 17.875 C 42.367188 18.101562 42.074219 18.320312 41.738281 18.5 C 41.570312 18.589844 41.394531 18.667969 41.191406 18.71875 C 41.089844 18.742188 40.980469 18.757812 40.867188 18.757812 C 40.808594 18.753906 40.75 18.75 40.691406 18.738281 C 40.632812 18.726562 40.574219 18.710938 40.515625 18.6875 C 40.460938 18.664062 40.40625 18.632812 40.355469 18.597656 C 40.308594 18.5625 40.261719 18.53125 40.222656 18.488281 C 40.179688 18.449219 40.140625 18.402344 40.105469 18.355469 C 40.089844 18.332031 40.074219 18.304688 40.058594 18.28125 C 40.050781 18.269531 40.042969 18.257812 40.035156 18.242188 L 40.015625 18.203125 C 39.96875 18.101562 39.933594 17.992188 39.917969 17.886719 L 39.910156 17.847656 L 39.90625 17.808594 C 39.902344 17.78125 39.898438 17.753906 39.898438 17.730469 C 39.894531 17.679688 39.890625 17.625 39.894531 17.578125 C 39.898438 17.375 39.929688 17.183594 39.972656 17 C 40.015625 16.820312 40.070312 16.640625 40.128906 16.46875 C 40.25 16.125 40.390625 15.792969 40.539062 15.46875 C 40.683594 15.144531 40.839844 14.828125 40.992188 14.507812 C 41.140625 14.191406 41.292969 13.875 41.433594 13.558594 C 41.574219 13.242188 41.703125 12.921875 41.800781 12.601562 C 41.847656 12.441406 41.882812 12.28125 41.902344 12.128906 L 41.90625 12.070312 L 41.90625 12.042969 L 41.910156 12.015625 C 41.910156 11.996094 41.910156 11.980469 41.910156 11.960938 L 41.90625 11.90625 C 41.902344 11.839844 41.890625 11.773438 41.871094 11.71875 C 41.851562 11.667969 41.824219 11.625 41.785156 11.585938 C 41.777344 11.578125 41.769531 11.566406 41.757812 11.558594 L 41.742188 11.546875 C 41.734375 11.542969 41.730469 11.539062 41.726562 11.535156 C 41.710938 11.527344 41.699219 11.519531 41.683594 11.507812 L 41.644531 11.488281 C 41.585938 11.460938 41.527344 11.445312 41.460938 11.433594 C 41.394531 11.421875 41.324219 11.425781 41.253906 11.429688 C 41.109375 11.441406 40.957031 11.480469 40.808594 11.535156 C 40.65625 11.589844 40.507812 11.660156 40.363281 11.742188 C 40.070312 11.902344 39.785156 12.097656 39.511719 12.304688 C 39.242188 12.511719 38.976562 12.738281 38.71875 12.96875 C 38.460938 13.203125 38.210938 13.445312 37.96875 13.691406 C 37.847656 13.816406 37.726562 13.941406 37.609375 14.070312 C 37.546875 14.132812 37.488281 14.195312 37.429688 14.261719 C 37.375 14.324219 37.3125 14.390625 37.261719 14.453125 L 36.878906 14.128906 C 36.941406 14.058594 37 13.992188 37.058594 13.925781 C 37.121094 13.859375 37.179688 13.792969 37.242188 13.726562 C 37.363281 13.597656 37.488281 13.46875 37.613281 13.339844 C 37.863281 13.085938 38.117188 12.839844 38.382812 12.597656 C 38.648438 12.359375 38.921875 12.125 39.210938 11.90625 C 39.496094 11.6875 39.796875 11.480469 40.121094 11.300781 C 40.285156 11.214844 40.453125 11.132812 40.636719 11.066406 C 40.816406 11 41.007812 10.945312 41.214844 10.929688 C 41.316406 10.921875 41.425781 10.921875 41.535156 10.9375 C 41.644531 10.957031 41.753906 10.988281 41.855469 11.035156 C 41.882812 11.046875 41.90625 11.058594 41.933594 11.074219 L 42.003906 11.121094 C 42.015625 11.125 42.03125 11.136719 42.042969 11.144531 L 42.078125 11.175781 C 42.101562 11.191406 42.125 11.214844 42.144531 11.238281 C 42.230469 11.324219 42.296875 11.433594 42.339844 11.546875 C 42.378906 11.65625 42.398438 11.769531 42.40625 11.875 L 42.410156 11.953125 C 42.410156 11.980469 42.410156 12.007812 42.410156 12.03125 L 42.40625 12.070312 L 42.40625 12.109375 L 42.398438 12.183594 C 42.375 12.378906 42.332031 12.5625 42.28125 12.742188 C 42.171875 13.097656 42.035156 13.433594 41.890625 13.761719 C 41.746094 14.085938 41.59375 14.40625 41.441406 14.726562 C 41.289062 15.042969 41.136719 15.359375 40.992188 15.675781 C 40.851562 15.992188 40.714844 16.3125 40.601562 16.632812 C 40.546875 16.792969 40.5 16.953125 40.460938 17.113281 C 40.421875 17.273438 40.398438 17.433594 40.394531 17.585938 C 40.394531 17.625 40.394531 17.660156 40.398438 17.695312 C 40.398438 17.714844 40.402344 17.730469 40.402344 17.75 L 40.40625 17.777344 L 40.410156 17.800781 C 40.421875 17.871094 40.441406 17.929688 40.46875 17.984375 L 40.476562 18.007812 C 40.480469 18.011719 40.484375 18.019531 40.488281 18.027344 C 40.496094 18.039062 40.503906 18.050781 40.511719 18.0625 C 40.53125 18.085938 40.546875 18.109375 40.570312 18.128906 C 40.589844 18.152344 40.617188 18.167969 40.640625 18.1875 C 40.660156 18.203125 40.683594 18.214844 40.707031 18.222656 C 40.734375 18.234375 40.757812 18.242188 40.785156 18.246094 C 40.816406 18.253906 40.84375 18.253906 40.875 18.257812 C 40.9375 18.257812 41.003906 18.246094 41.074219 18.230469 C 41.214844 18.199219 41.363281 18.136719 41.503906 18.058594 C 41.792969 17.90625 42.066406 17.703125 42.332031 17.488281 C 42.597656 17.269531 42.851562 17.035156 43.101562 16.792969 C 43.347656 16.550781 43.589844 16.296875 43.824219 16.042969 C 44.0625 15.785156 44.292969 15.523438 44.523438 15.257812 C 44.75 14.992188 44.972656 14.722656 45.195312 14.453125 C 45.414062 14.179688 45.632812 13.90625 45.847656 13.628906 C 46.035156 13.386719 46.222656 13.140625 46.40625 12.894531 C 46.101562 12.902344 45.882812 12.777344 45.773438 12.695312 C 45.871094 12.5625 45.96875 12.433594 46.066406 12.304688 C 46.132812 12.351562 46.238281 12.40625 46.386719 12.398438 C 46.535156 12.394531 46.730469 12.332031 46.964844 12.148438 L 47.355469 12.425781 C 47.257812 12.714844 47.253906 12.917969 47.292969 13.0625 Z M 47.292969 13.0625 " fill-opacity="1" fill-rule="nonzero"/></g></g></g><g clip-path="url(#d249af04af)"><path fill="#9cff1e" d="M 13.0625 13.75 L 13.0625 14.269531 C 12.429688 14.457031 12.332031 14.785156 12.332031 14.964844 L 11.789062 14.964844 C 11.789062 14.816406 11.824219 14.542969 12.03125 14.28125 L 11.15625 14.28125 L 11.15625 13.738281 L 12.03125 13.738281 C 11.824219 13.476562 11.789062 13.203125 11.789062 13.054688 L 12.332031 13.054688 C 12.332031 13.234375 12.429688 13.5625 13.0625 13.75 Z M 13.0625 13.75 " fill-opacity="1" fill-rule="nonzero"/></g><g fill="#ffffff" fill-opacity="1"><g transform="translate(14.387862, 14.890526)"><g><path d="M 0.0273438 0 L 0.917969 0 L 1.378906 -0.523438 L 1.84375 0 L 2.734375 0 L 1.867188 -0.917969 L 2.734375 -1.835938 L 1.84375 -1.835938 L 1.378906 -1.3125 L 0.917969 -1.835938 L 0.0273438 -1.835938 L 0.894531 -0.917969 Z M 0.0273438 0 "/></g></g></g><g fill="#ffffff" fill-opacity="1"><g transform="translate(17.14808, 14.890526)"><g><path d="M 0.8125 0 L 1.496094 0 L 1.496094 -1.257812 L 2.28125 -1.257812 L 2.28125 -1.835938 L 0.0273438 -1.835938 L 0.0273438 -1.257812 L 0.8125 -1.257812 Z M 0.8125 0 "/></g></g></g><g fill="#ffffff" fill-opacity="1"><g transform="translate(19.457008, 14.890526)"><g><path d="M 0.960938 0 L 1.644531 0 L 1.644531 -0.601562 L 2.578125 -1.835938 L 1.789062 -1.835938 L 1.300781 -1.15625 L 0.8125 -1.835938 L 0.0273438 -1.835938 L 0.960938 -0.601562 Z M 0.960938 0 "/></g></g></g><g fill="#ffffff" fill-opacity="1"><g transform="translate(22.059799, 14.890526)"><g/></g></g><g fill="#ffffff" fill-opacity="1"><g transform="translate(23.109312, 14.890526)"><g><path d="M 1.199219 0.0273438 C 1.953125 0.0273438 2.371094 -0.101562 2.371094 -0.609375 C 2.371094 -1.089844 1.921875 -1.140625 1.199219 -1.167969 C 0.800781 -1.183594 0.734375 -1.179688 0.734375 -1.25 C 0.734375 -1.324219 0.800781 -1.339844 1.121094 -1.339844 C 1.453125 -1.339844 1.609375 -1.316406 1.609375 -1.21875 L 2.292969 -1.21875 C 2.292969 -1.691406 1.890625 -1.863281 1.171875 -1.863281 C 0.449219 -1.863281 0.0507812 -1.691406 0.0507812 -1.285156 C 0.0507812 -0.859375 0.371094 -0.722656 1.199219 -0.695312 C 1.628906 -0.683594 1.691406 -0.671875 1.691406 -0.59375 C 1.691406 -0.523438 1.628906 -0.5 1.226562 -0.5 C 0.792969 -0.5 0.707031 -0.558594 0.707031 -0.648438 L 0.0273438 -0.648438 C 0.0273438 -0.101562 0.445312 0.0273438 1.199219 0.0273438 Z M 1.199219 0.0273438 "/></g></g></g><g fill="#ffffff" fill-opacity="1"><g transform="translate(25.507448, 14.890526)"><g><path d="M 0.8125 0 L 1.496094 0 L 1.496094 -1.257812 L 2.28125 -1.257812 L 2.28125 -1.835938 L 0.0273438 -1.835938 L 0.0273438 -1.257812 L 0.8125 -1.257812 Z M 0.8125 0 "/></g></g></g><g fill="#ffffff" fill-opacity="1"><g transform="translate(27.816377, 14.890526)"><g><path d="M 1.207031 0.0273438 C 2.011719 0.0273438 2.363281 -0.285156 2.363281 -0.921875 L 2.363281 -1.835938 L 1.679688 -1.835938 L 1.679688 -0.921875 C 1.679688 -0.726562 1.609375 -0.550781 1.207031 -0.550781 C 0.804688 -0.550781 0.734375 -0.722656 0.734375 -0.921875 L 0.734375 -1.835938 L 0.0507812 -1.835938 L 0.0507812 -0.921875 C 0.0507812 -0.28125 0.398438 0.0273438 1.207031 0.0273438 Z M 1.207031 0.0273438 "/></g></g></g><g fill="#ffffff" fill-opacity="1"><g transform="translate(30.230256, 14.890526)"><g><path d="M 0.0507812 0 L 1.417969 0 C 1.859375 0 2.277344 -0.292969 2.277344 -0.917969 C 2.277344 -1.542969 1.859375 -1.835938 1.417969 -1.835938 L 0.0507812 -1.835938 Z M 0.734375 -0.578125 L 0.734375 -1.257812 L 1.207031 -1.257812 C 1.355469 -1.257812 1.59375 -1.257812 1.59375 -0.917969 C 1.59375 -0.578125 1.355469 -0.578125 1.207031 -0.578125 Z M 0.734375 -0.578125 "/></g></g></g><g fill="#ffffff" fill-opacity="1"><g transform="translate(32.533936, 14.890526)"><g><path d="M 0.0507812 0 L 0.734375 0 L 0.734375 -1.835938 L 0.0507812 -1.835938 Z M 0.0507812 0 "/></g></g></g><g fill="#ffffff" fill-opacity="1"><g transform="translate(33.32107, 14.890526)"><g><path d="M 1.179688 0.0273438 C 1.984375 0.0273438 2.335938 -0.285156 2.335938 -0.921875 C 2.335938 -1.554688 1.984375 -1.863281 1.179688 -1.863281 C 0.371094 -1.863281 0.0273438 -1.558594 0.0273438 -0.921875 C 0.0273438 -0.28125 0.371094 0.0273438 1.179688 0.0273438 Z M 1.179688 -0.550781 C 0.78125 -0.550781 0.707031 -0.722656 0.707031 -0.921875 C 0.707031 -1.113281 0.777344 -1.285156 1.179688 -1.285156 C 1.585938 -1.285156 1.652344 -1.113281 1.652344 -0.921875 C 1.652344 -0.726562 1.582031 -0.550781 1.179688 -0.550781 Z M 1.179688 -0.550781 "/></g></g></g><g fill="#ffffff" fill-opacity="1"><g transform="translate(35.682474, 14.890526)"><g><path d="M 1.199219 0.0273438 C 1.953125 0.0273438 2.371094 -0.101562 2.371094 -0.609375 C 2.371094 -1.089844 1.921875 -1.140625 1.199219 -1.167969 C 0.800781 -1.183594 0.734375 -1.179688 0.734375 -1.25 C 0.734375 -1.324219 0.800781 -1.339844 1.121094 -1.339844 C 1.453125 -1.339844 1.609375 -1.316406 1.609375 -1.21875 L 2.292969 -1.21875 C 2.292969 -1.691406 1.890625 -1.863281 1.171875 -1.863281 C 0.449219 -1.863281 0.0507812 -1.691406 0.0507812 -1.285156 C 0.0507812 -0.859375 0.371094 -0.722656 1.199219 -0.695312 C 1.628906 -0.683594 1.691406 -0.671875 1.691406 -0.59375 C 1.691406 -0.523438 1.628906 -0.5 1.226562 -0.5 C 0.792969 -0.5 0.707031 -0.558594 0.707031 -0.648438 L 0.0273438 -0.648438 C 0.0273438 -0.101562 0.445312 0.0273438 1.199219 0.0273438 Z M 1.199219 0.0273438 "/></g></g></g><g fill="#9cff1e" fill-opacity="1"><g transform="translate(14.387862, 16.427099)"><g><path d="M 0.269531 0 L 0.703125 0 L 0.832031 -0.453125 L 0.960938 0 L 1.390625 0 L 1.648438 -0.785156 L 1.335938 -0.785156 L 1.175781 -0.230469 L 1.003906 -0.785156 L 0.65625 -0.785156 L 0.488281 -0.230469 L 0.324219 -0.785156 L 0.0117188 -0.785156 Z M 0.269531 0 "/></g></g></g><g fill="#9cff1e" fill-opacity="1"><g transform="translate(16.04869, 16.427099)"><g><path d="M 0.0234375 0 L 0.851562 0 L 0.851562 -0.222656 L 0.3125 -0.222656 L 0.3125 -0.296875 L 0.851562 -0.296875 L 0.851562 -0.488281 L 0.3125 -0.488281 L 0.3125 -0.558594 L 0.851562 -0.558594 L 0.851562 -0.785156 L 0.0234375 -0.785156 Z M 0.0234375 0 "/></g></g></g><g fill="#9cff1e" fill-opacity="1"><g transform="translate(16.911603, 16.427099)"><g><path d="M 0.0234375 0 L 0.738281 0 C 0.917969 0 0.996094 -0.101562 0.996094 -0.230469 C 0.996094 -0.316406 0.945312 -0.390625 0.878906 -0.4375 C 0.914062 -0.484375 0.9375 -0.535156 0.9375 -0.585938 C 0.9375 -0.703125 0.882812 -0.785156 0.707031 -0.785156 L 0.0234375 -0.785156 Z M 0.3125 -0.507812 L 0.3125 -0.59375 L 0.582031 -0.59375 C 0.613281 -0.59375 0.648438 -0.59375 0.648438 -0.550781 C 0.648438 -0.507812 0.613281 -0.507812 0.582031 -0.507812 Z M 0.3125 -0.214844 L 0.3125 -0.296875 L 0.640625 -0.296875 C 0.667969 -0.296875 0.703125 -0.296875 0.703125 -0.253906 C 0.703125 -0.214844 0.667969 -0.214844 0.640625 -0.214844 Z M 0.3125 -0.214844 "/></g></g></g><g fill="#9cff1e" fill-opacity="1"><g transform="translate(17.917962, 16.427099)"><g/></g></g><g fill="#9cff1e" fill-opacity="1"><g transform="translate(18.366229, 16.427099)"><g><path d="M 0.0234375 0 L 0.851562 0 L 0.851562 -0.222656 L 0.3125 -0.222656 L 0.3125 -0.296875 L 0.851562 -0.296875 L 0.851562 -0.488281 L 0.3125 -0.488281 L 0.3125 -0.558594 L 0.851562 -0.558594 L 0.851562 -0.785156 L 0.0234375 -0.785156 Z M 0.0234375 0 "/></g></g></g><g fill="#9cff1e" fill-opacity="1"><g transform="translate(19.229143, 16.427099)"><g><path d="M 0.0234375 0 L 0.605469 0 C 0.792969 0 0.972656 -0.125 0.972656 -0.390625 C 0.972656 -0.660156 0.792969 -0.785156 0.605469 -0.785156 L 0.0234375 -0.785156 Z M 0.3125 -0.246094 L 0.3125 -0.539062 L 0.515625 -0.539062 C 0.578125 -0.539062 0.679688 -0.539062 0.679688 -0.390625 C 0.679688 -0.246094 0.578125 -0.246094 0.515625 -0.246094 Z M 0.3125 -0.246094 "/></g></g></g><g fill="#9cff1e" fill-opacity="1"><g transform="translate(20.213088, 16.427099)"><g><path d="M 0.0234375 0 L 0.3125 0 L 0.3125 -0.785156 L 0.0234375 -0.785156 Z M 0.0234375 0 "/></g></g></g><g fill="#9cff1e" fill-opacity="1"><g transform="translate(20.549288, 16.427099)"><g><path d="M 0.347656 0 L 0.640625 0 L 0.640625 -0.539062 L 0.976562 -0.539062 L 0.976562 -0.785156 L 0.0117188 -0.785156 L 0.0117188 -0.539062 L 0.347656 -0.539062 Z M 0.347656 0 "/></g></g></g><g fill="#9cff1e" fill-opacity="1"><g transform="translate(21.535476, 16.427099)"><g><path d="M 0.0234375 0 L 0.3125 0 L 0.3125 -0.785156 L 0.0234375 -0.785156 Z M 0.0234375 0 "/></g></g></g><g fill="#9cff1e" fill-opacity="1"><g transform="translate(21.871676, 16.427099)"><g><path d="M 0.503906 0.0117188 C 0.847656 0.0117188 0.996094 -0.121094 0.996094 -0.394531 C 0.996094 -0.664062 0.847656 -0.796875 0.503906 -0.796875 C 0.160156 -0.796875 0.0117188 -0.664062 0.0117188 -0.394531 C 0.0117188 -0.121094 0.160156 0.0117188 0.503906 0.0117188 Z M 0.503906 -0.234375 C 0.332031 -0.234375 0.300781 -0.308594 0.300781 -0.394531 C 0.300781 -0.476562 0.332031 -0.550781 0.503906 -0.550781 C 0.675781 -0.550781 0.707031 -0.476562 0.707031 -0.394531 C 0.707031 -0.308594 0.675781 -0.234375 0.503906 -0.234375 Z M 0.503906 -0.234375 "/></g></g></g><g fill="#9cff1e" fill-opacity="1"><g transform="translate(22.880276, 16.427099)"><g><path d="M 0.0234375 0 L 0.3125 0 L 0.3125 -0.460938 L 0.652344 0 L 1.035156 0 L 1.035156 -0.785156 L 0.742188 -0.785156 L 0.742188 -0.320312 L 0.402344 -0.785156 L 0.0234375 -0.785156 Z M 0.0234375 0 "/></g></g></g></svg>