<svg xmlns="http://www.w3.org/2000/svg" xmlns:xlink="http://www.w3.org/1999/xlink" width="80" zoomAndPan="magnify" viewBox="0 0 60 30.000001" height="40" preserveAspectRatio="xMidYMid meet" version="1.0"><defs><filter x="0%" y="0%" width="100%" height="100%" id="b3f380df97"><feColorMatrix values="0 0 0 0 1 0 0 0 0 1 0 0 0 0 1 0 0 0 1 0" color-interpolation-filters="sRGB"/></filter><g/><clipPath id="5722b57b70"><path d="M 0.96875 0 L 59.03125 0 L 59.03125 29.03125 L 0.96875 29.03125 Z M 0.96875 0 " clip-rule="nonzero"/></clipPath><clipPath id="1961f8cafb"><path d="M 19.136719 12.613281 L 23.382812 12.613281 L 23.382812 15.996094 L 19.136719 15.996094 Z M 19.136719 12.613281 " clip-rule="nonzero"/></clipPath><clipPath id="71406de0de"><path d="M 20.714844 12.613281 L 22.9375 12.613281 C 23.070312 12.613281 23.199219 12.679688 23.277344 12.789062 C 23.355469 12.894531 23.375 13.035156 23.335938 13.164062 L 22.574219 15.445312 C 22.464844 15.773438 22.15625 15.996094 21.808594 15.996094 L 19.585938 15.996094 C 19.453125 15.996094 19.324219 15.933594 19.246094 15.824219 C 19.167969 15.714844 19.148438 15.574219 19.191406 15.445312 L 19.949219 13.164062 C 20.058594 12.835938 20.367188 12.613281 20.714844 12.613281 Z M 20.714844 12.613281 " clip-rule="nonzero"/></clipPath><mask id="eeffb7f02a"><g filter="url(#b3f380df97)"><rect x="-6" width="72" fill="#000000" y="-3" height="36.000001" fill-opacity="0.8"/></g></mask><clipPath id="df8c0bfdad"><path d="M 0.519531 0.992188 L 4.761719 0.992188 L 4.761719 4.375 L 0.519531 4.375 Z M 0.519531 0.992188 " clip-rule="nonzero"/></clipPath><clipPath id="5435b52370"><path d="M 2.09375 0.992188 L 4.316406 0.992188 C 4.453125 0.992188 4.578125 1.054688 4.65625 1.164062 C 4.734375 1.273438 4.757812 1.414062 4.714844 1.542969 L 3.953125 3.824219 C 3.84375 4.152344 3.535156 4.375 3.191406 4.375 L 0.96875 4.375 C 0.832031 4.375 0.707031 4.308594 0.628906 4.199219 C 0.550781 4.089844 0.527344 3.949219 0.570312 3.824219 L 1.332031 1.542969 C 1.441406 1.210938 1.75 0.992188 2.09375 0.992188 Z M 2.09375 0.992188 " clip-rule="nonzero"/></clipPath><clipPath id="d03dff5e64"><rect x="0" width="6" y="0" height="5"/></clipPath></defs><g clip-path="url(#5722b57b70)"><path fill="#ffffff" d="M 0.96875 0 L 59.03125 0 L 59.03125 29.03125 L 0.96875 29.03125 Z M 0.96875 0 " fill-opacity="1" fill-rule="nonzero"/><path fill="#050419" d="M 0.96875 0 L 59.03125 0 L 59.03125 29.03125 L 0.96875 29.03125 Z M 0.96875 0 " fill-opacity="1" fill-rule="nonzero"/></g><g clip-path="url(#1961f8cafb)"><g clip-path="url(#71406de0de)"><path fill="#0558ee" d="M 19.007812 12.613281 L 23.511719 12.613281 L 23.511719 15.996094 L 19.007812 15.996094 Z M 19.007812 12.613281 " fill-opacity="1" fill-rule="nonzero"/></g></g><g mask="url(#eeffb7f02a)"><g transform="matrix(1, 0, 0, 1, 18, 11)"><g clip-path="url(#d03dff5e64)"><g clip-path="url(#df8c0bfdad)"><g clip-path="url(#5435b52370)"><path fill="#21e8e6" d="M 0.386719 0.992188 L 4.894531 0.992188 L 4.894531 4.375 L 0.386719 4.375 Z M 0.386719 0.992188 " fill-opacity="1" fill-rule="nonzero"/></g></g></g></g></g><g fill="#f2f2f2" fill-opacity="1"><g transform="translate(18.387096, 15.200556)"><g/></g></g><g fill="#f2f2f2" fill-opacity="1"><g transform="translate(19.296012, 15.200556)"><g/></g></g><g fill="#f2f2f2" fill-opacity="1"><g transform="translate(20.204929, 15.200556)"><g/></g></g><g fill="#f2f2f2" fill-opacity="1"><g transform="translate(21.113846, 15.200556)"><g/></g></g><g fill="#f2f2f2" fill-opacity="1"><g transform="translate(22.022763, 15.200556)"><g/></g></g><g fill="#f2f2f2" fill-opacity="1"><g transform="translate(22.931679, 15.200556)"><g/></g></g><g fill="#f2f2f2" fill-opacity="1"><g transform="translate(23.841121, 15.200556)"><g><path d="M -0.105469 -1.730469 C 0.0546875 -1.511719 0.335938 -1.117188 0.523438 -0.863281 L -0.105469 0 L 0.203125 0 L 0.671875 -0.648438 L 1.148438 0 L 1.453125 0 C 1.285156 -0.230469 1.011719 -0.605469 0.824219 -0.863281 L 1.453125 -1.730469 L 1.148438 -1.730469 L 0.671875 -1.082031 L 0.203125 -1.730469 Z M -0.105469 -1.730469 "/></g></g></g><g fill="#f2f2f2" fill-opacity="1"><g transform="translate(25.366711, 15.200556)"><g><path d="M 0.726562 0.0078125 L 0.726562 -1.480469 L 1.25 -1.480469 L 1.25 -1.734375 L -0.0507812 -1.734375 L -0.0507812 -1.480469 L 0.476562 -1.480469 L 0.476562 0.0078125 Z M 0.726562 0.0078125 "/></g></g></g><g fill="#f2f2f2" fill-opacity="1"><g transform="translate(26.726368, 15.200556)"><g><path d="M -0.125 -1.730469 L 0.519531 -0.707031 L 0.519531 0 L 0.769531 0 L 0.769531 -0.707031 L 1.414062 -1.730469 L 1.117188 -1.730469 L 0.644531 -0.972656 L 0.171875 -1.730469 Z M -0.125 -1.730469 "/></g></g></g><g fill="#f2f2f2" fill-opacity="1"><g transform="translate(28.167753, 15.200556)"><g/></g></g><g fill="#f2f2f2" fill-opacity="1"><g transform="translate(29.07667, 15.200556)"><g><path d="M 1.234375 -1.296875 C 1.1875 -1.613281 0.910156 -1.75 0.644531 -1.75 C 0.441406 -1.75 0.234375 -1.671875 0.117188 -1.519531 C 0.0429688 -1.425781 0.015625 -1.308594 0.0234375 -1.191406 L 0.0234375 -1.195312 C 0.0507812 -0.832031 0.367188 -0.773438 0.640625 -0.746094 C 0.8125 -0.726562 0.992188 -0.707031 1.019531 -0.574219 C 1.023438 -0.550781 1.027344 -0.53125 1.027344 -0.515625 C 1.027344 -0.335938 0.824219 -0.234375 0.640625 -0.234375 C 0.476562 -0.234375 0.28125 -0.316406 0.265625 -0.476562 L 0.265625 -0.46875 L 0.261719 -0.503906 L 0.0117188 -0.5 L 0.0117188 -0.453125 C 0.0429688 -0.144531 0.367188 0.015625 0.636719 0.015625 C 0.949219 0.015625 1.28125 -0.179688 1.28125 -0.511719 C 1.28125 -0.546875 1.277344 -0.589844 1.269531 -0.625 C 1.203125 -0.902344 0.90625 -0.964844 0.667969 -0.996094 C 0.484375 -1.011719 0.289062 -1.035156 0.273438 -1.214844 C 0.269531 -1.273438 0.28125 -1.328125 0.316406 -1.375 C 0.386719 -1.464844 0.515625 -1.503906 0.632812 -1.507812 C 0.78125 -1.507812 0.949219 -1.441406 0.984375 -1.285156 Z M 1.234375 -1.296875 "/></g></g></g><g fill="#f2f2f2" fill-opacity="1"><g transform="translate(30.485859, 15.200556)"><g><path d="M 0.726562 0.0078125 L 0.726562 -1.5 L 1.25 -1.5 L 1.25 -1.734375 L -0.0507812 -1.734375 L -0.0507812 -1.5 L 0.476562 -1.5 L 0.476562 0.0078125 Z M 0.726562 0.0078125 "/></g></g></g><g fill="#f2f2f2" fill-opacity="1"><g transform="translate(31.845516, 15.200556)"><g><path d="M 0.6875 0.015625 C 0.984375 0.015625 1.324219 -0.164062 1.324219 -0.519531 L 1.324219 -1.730469 L 1.074219 -1.730469 L 1.074219 -0.519531 C 1.074219 -0.328125 0.867188 -0.234375 0.6875 -0.234375 C 0.503906 -0.234375 0.296875 -0.328125 0.296875 -0.519531 L 0.296875 -1.730469 L 0.0429688 -1.730469 L 0.0429688 -0.519531 C 0.0429688 -0.164062 0.382812 0.015625 0.6875 0.015625 Z M 0.6875 0.015625 "/></g></g></g><g fill="#f2f2f2" fill-opacity="1"><g transform="translate(33.341386, 15.200556)"><g><path d="M 0.292969 -0.25 L 0.292969 -1.480469 L 0.664062 -1.480469 C 1.066406 -1.480469 1.269531 -1.171875 1.269531 -0.863281 C 1.269531 -0.558594 1.066406 -0.25 0.664062 -0.25 Z M 0.0429688 -1.730469 L 0.0429688 0 L 0.664062 0 C 1.230469 0 1.515625 -0.429688 1.515625 -0.863281 C 1.515625 -1.296875 1.230469 -1.730469 0.664062 -1.730469 Z M 0.0429688 -1.730469 "/></g></g></g><g fill="#f2f2f2" fill-opacity="1"><g transform="translate(34.990806, 15.200556)"><g><path d="M 0.855469 -1.730469 L -0.0390625 -1.730469 L -0.0390625 -1.484375 L 0.28125 -1.484375 L 0.28125 -0.25 L -0.0390625 -0.25 L -0.0390625 0 L 0.855469 0 L 0.855469 -0.25 L 0.53125 -0.25 L 0.53125 -1.484375 L 0.855469 -1.484375 Z M 0.855469 -1.730469 "/></g></g></g><g fill="#f2f2f2" fill-opacity="1"><g transform="translate(35.954208, 15.200556)"><g><path d="M 1.507812 -0.867188 C 1.507812 -0.6875 1.4375 -0.53125 1.324219 -0.417969 C 1.207031 -0.300781 1.046875 -0.230469 0.875 -0.230469 C 0.707031 -0.230469 0.546875 -0.300781 0.433594 -0.417969 C 0.320312 -0.53125 0.246094 -0.691406 0.246094 -0.867188 C 0.246094 -1.042969 0.320312 -1.203125 0.433594 -1.316406 C 0.546875 -1.429688 0.707031 -1.503906 0.875 -1.503906 C 1.046875 -1.503906 1.207031 -1.429688 1.324219 -1.316406 C 1.4375 -1.203125 1.507812 -1.046875 1.507812 -0.867188 Z M -0.00390625 -0.867188 C -0.00390625 -0.621094 0.0976562 -0.402344 0.253906 -0.242188 C 0.410156 -0.078125 0.632812 0.0234375 0.875 0.0234375 C 1.121094 0.0234375 1.34375 -0.078125 1.503906 -0.242188 C 1.660156 -0.402344 1.761719 -0.621094 1.761719 -0.867188 C 1.761719 -1.113281 1.660156 -1.332031 1.503906 -1.492188 C 1.34375 -1.65625 1.121094 -1.757812 0.875 -1.757812 C 0.632812 -1.757812 0.410156 -1.65625 0.253906 -1.492188 C 0.0976562 -1.332031 -0.00390625 -1.113281 -0.00390625 -0.867188 Z M -0.00390625 -0.867188 "/></g></g></g><g fill="#f2f2f2" fill-opacity="1"><g transform="translate(37.868623, 15.200556)"><g><path d="M 1.234375 -1.296875 C 1.1875 -1.613281 0.910156 -1.75 0.644531 -1.75 C 0.441406 -1.75 0.234375 -1.671875 0.117188 -1.519531 C 0.0429688 -1.425781 0.015625 -1.308594 0.0234375 -1.191406 L 0.0234375 -1.195312 C 0.0507812 -0.832031 0.367188 -0.773438 0.640625 -0.746094 C 0.8125 -0.726562 0.992188 -0.707031 1.019531 -0.574219 C 1.023438 -0.550781 1.027344 -0.53125 1.027344 -0.515625 C 1.027344 -0.335938 0.824219 -0.234375 0.640625 -0.234375 C 0.476562 -0.234375 0.28125 -0.316406 0.265625 -0.476562 L 0.265625 -0.46875 L 0.261719 -0.503906 L 0.0117188 -0.5 L 0.0117188 -0.453125 C 0.0429688 -0.144531 0.367188 0.015625 0.636719 0.015625 C 0.949219 0.015625 1.28125 -0.179688 1.28125 -0.511719 C 1.28125 -0.546875 1.277344 -0.589844 1.269531 -0.625 C 1.203125 -0.902344 0.90625 -0.964844 0.667969 -0.996094 C 0.484375 -1.011719 0.289062 -1.035156 0.273438 -1.214844 C 0.269531 -1.273438 0.28125 -1.328125 0.316406 -1.375 C 0.386719 -1.464844 0.515625 -1.503906 0.632812 -1.507812 C 0.78125 -1.507812 0.949219 -1.441406 0.984375 -1.285156 Z M 1.234375 -1.296875 "/></g></g></g><g fill="#ff00ff" fill-opacity="1"><g transform="translate(32.888612, 18.709648)"><g><path d="M 1.535156 0.0195312 L 1.757812 0.0195312 L 2.445312 -2.070312 L 2.132812 -2.070312 C 1.976562 -1.597656 1.796875 -1.070312 1.632812 -0.578125 L 1.296875 -1.542969 L 1.058594 -1.542969 L 0.714844 -0.574219 L 0.222656 -2.070312 L -0.0898438 -2.070312 L 0.601562 0.0195312 L 0.824219 0.0195312 C 0.929688 -0.296875 1.058594 -0.648438 1.175781 -0.984375 Z M 1.535156 0.0195312 "/></g></g></g><g fill="#ff00ff" fill-opacity="1"><g transform="translate(35.408872, 18.709648)"><g><path d="M 0.335938 -0.886719 L 1.277344 -0.886719 L 1.277344 -1.1875 L 0.335938 -1.1875 L 0.335938 -1.769531 L 1.296875 -1.769531 L 1.296875 -2.070312 L 0.0351562 -2.070312 L 0.0351562 0 L 1.300781 0 L 1.300781 -0.300781 L 0.335938 -0.300781 Z M 0.335938 -0.886719 "/></g></g></g><g fill="#ff00ff" fill-opacity="1"><g transform="translate(36.794868, 18.709648)"><g><path d="M 0.34375 -1.785156 L 0.910156 -1.785156 C 1.234375 -1.785156 1.230469 -1.246094 0.902344 -1.246094 L 0.34375 -1.246094 Z M 0.046875 -2.070312 L 0.046875 0 L 0.984375 0 C 1.378906 0 1.585938 -0.3125 1.585938 -0.625 C 1.585938 -0.820312 1.5 -1.039062 1.261719 -1.140625 C 1.46875 -1.289062 1.496094 -1.523438 1.414062 -1.730469 C 1.335938 -1.921875 1.167969 -2.070312 0.910156 -2.070312 Z M 0.34375 -0.949219 L 0.984375 -0.949219 C 1.183594 -0.949219 1.285156 -0.785156 1.285156 -0.621094 C 1.285156 -0.460938 1.183594 -0.289062 0.984375 -0.289062 L 0.34375 -0.289062 Z M 0.34375 -0.949219 "/></g></g></g><g fill="#ff00ff" fill-opacity="1"><g transform="translate(38.482938, 18.709648)"><g/></g></g><g fill="#ff00ff" fill-opacity="1"><g transform="translate(39.525397, 18.709648)"><g><path d="M 0.0429688 -2.074219 L 0.0429688 0 L 0.34375 0 L 0.34375 -0.691406 L 0.800781 -0.691406 C 1.246094 -0.691406 1.472656 -1.035156 1.472656 -1.378906 C 1.472656 -1.726562 1.246094 -2.074219 0.800781 -2.074219 Z M 0.34375 -0.984375 L 0.34375 -1.769531 L 0.800781 -1.769531 C 1.050781 -1.769531 1.175781 -1.574219 1.175781 -1.378906 C 1.175781 -1.183594 1.050781 -0.984375 0.800781 -0.984375 Z M 0.34375 -0.984375 "/></g></g></g><g fill="#ff00ff" fill-opacity="1"><g transform="translate(41.086124, 18.709648)"><g><path d="M 0.816406 -1.621094 L 1.070312 -0.890625 L 0.558594 -0.890625 Z M 1.4375 0 L 1.757812 0 L 0.925781 -2.101562 L 0.703125 -2.101562 L -0.128906 0 L 0.195312 0 C 0.261719 -0.171875 0.363281 -0.421875 0.445312 -0.609375 L 1.1875 -0.609375 Z M 1.4375 0 "/></g></g></g><g fill="#ff00ff" fill-opacity="1"><g transform="translate(42.827502, 18.709648)"><g><path d="M 0.347656 0 L 0.347656 -1.449219 L 1.347656 0 L 1.585938 0 L 1.585938 -2.074219 L 1.289062 -2.074219 L 1.289062 -0.613281 L 0.277344 -2.074219 L 0.046875 -2.074219 L 0.046875 0 Z M 0.347656 0 "/></g></g></g><g fill="#ff00ff" fill-opacity="1"><g transform="translate(44.56888, 18.709648)"><g><path d="M 0.335938 -0.886719 L 1.277344 -0.886719 L 1.277344 -1.1875 L 0.335938 -1.1875 L 0.335938 -1.769531 L 1.296875 -1.769531 L 1.296875 -2.070312 L 0.0351562 -2.070312 L 0.0351562 0 L 1.300781 0 L 1.300781 -0.300781 L 0.335938 -0.300781 Z M 0.335938 -0.886719 "/></g></g></g><g fill="#ff00ff" fill-opacity="1"><g transform="translate(45.954877, 18.709648)"><g><path d="M 0.335938 -2.070312 L 0.0390625 -2.070312 L 0.0390625 0 L 1.3125 0 L 1.3125 -0.300781 L 0.335938 -0.300781 Z M 0.335938 -2.070312 "/></g></g></g><g fill="#00ffff" fill-opacity="1"><g transform="translate(33.042931, 18.565741)"><g><path d="M 1.535156 0.0195312 L 1.757812 0.0195312 L 2.445312 -2.070312 L 2.132812 -2.070312 C 1.976562 -1.597656 1.796875 -1.070312 1.632812 -0.578125 L 1.296875 -1.542969 L 1.058594 -1.542969 L 0.714844 -0.574219 L 0.222656 -2.070312 L -0.0898438 -2.070312 L 0.601562 0.0195312 L 0.824219 0.0195312 C 0.929688 -0.296875 1.058594 -0.648438 1.175781 -0.984375 Z M 1.535156 0.0195312 "/></g></g></g><g fill="#00ffff" fill-opacity="1"><g transform="translate(35.563191, 18.565741)"><g><path d="M 0.335938 -0.886719 L 1.277344 -0.886719 L 1.277344 -1.1875 L 0.335938 -1.1875 L 0.335938 -1.769531 L 1.296875 -1.769531 L 1.296875 -2.070312 L 0.0351562 -2.070312 L 0.0351562 0 L 1.300781 0 L 1.300781 -0.300781 L 0.335938 -0.300781 Z M 0.335938 -0.886719 "/></g></g></g><g fill="#00ffff" fill-opacity="1"><g transform="translate(36.949187, 18.565741)"><g><path d="M 0.34375 -1.785156 L 0.910156 -1.785156 C 1.234375 -1.785156 1.230469 -1.246094 0.902344 -1.246094 L 0.34375 -1.246094 Z M 0.046875 -2.070312 L 0.046875 0 L 0.984375 0 C 1.378906 0 1.585938 -0.3125 1.585938 -0.625 C 1.585938 -0.820312 1.5 -1.039062 1.261719 -1.140625 C 1.46875 -1.289062 1.496094 -1.523438 1.414062 -1.730469 C 1.335938 -1.921875 1.167969 -2.070312 0.910156 -2.070312 Z M 0.34375 -0.949219 L 0.984375 -0.949219 C 1.183594 -0.949219 1.285156 -0.785156 1.285156 -0.621094 C 1.285156 -0.460938 1.183594 -0.289062 0.984375 -0.289062 L 0.34375 -0.289062 Z M 0.34375 -0.949219 "/></g></g></g><g fill="#00ffff" fill-opacity="1"><g transform="translate(38.637257, 18.565741)"><g/></g></g><g fill="#00ffff" fill-opacity="1"><g transform="translate(39.679715, 18.565741)"><g><path d="M 0.0429688 -2.074219 L 0.0429688 0 L 0.34375 0 L 0.34375 -0.691406 L 0.800781 -0.691406 C 1.246094 -0.691406 1.472656 -1.035156 1.472656 -1.378906 C 1.472656 -1.726562 1.246094 -2.074219 0.800781 -2.074219 Z M 0.34375 -0.984375 L 0.34375 -1.769531 L 0.800781 -1.769531 C 1.050781 -1.769531 1.175781 -1.574219 1.175781 -1.378906 C 1.175781 -1.183594 1.050781 -0.984375 0.800781 -0.984375 Z M 0.34375 -0.984375 "/></g></g></g><g fill="#00ffff" fill-opacity="1"><g transform="translate(41.240443, 18.565741)"><g><path d="M 0.816406 -1.621094 L 1.070312 -0.890625 L 0.558594 -0.890625 Z M 1.4375 0 L 1.757812 0 L 0.925781 -2.101562 L 0.703125 -2.101562 L -0.128906 0 L 0.195312 0 C 0.261719 -0.171875 0.363281 -0.421875 0.445312 -0.609375 L 1.1875 -0.609375 Z M 1.4375 0 "/></g></g></g><g fill="#00ffff" fill-opacity="1"><g transform="translate(42.981821, 18.565741)"><g><path d="M 0.347656 0 L 0.347656 -1.449219 L 1.347656 0 L 1.585938 0 L 1.585938 -2.074219 L 1.289062 -2.074219 L 1.289062 -0.613281 L 0.277344 -2.074219 L 0.046875 -2.074219 L 0.046875 0 Z M 0.347656 0 "/></g></g></g><g fill="#00ffff" fill-opacity="1"><g transform="translate(44.723199, 18.565741)"><g><path d="M 0.335938 -0.886719 L 1.277344 -0.886719 L 1.277344 -1.1875 L 0.335938 -1.1875 L 0.335938 -1.769531 L 1.296875 -1.769531 L 1.296875 -2.070312 L 0.0351562 -2.070312 L 0.0351562 0 L 1.300781 0 L 1.300781 -0.300781 L 0.335938 -0.300781 Z M 0.335938 -0.886719 "/></g></g></g><g fill="#00ffff" fill-opacity="1"><g transform="translate(46.109195, 18.565741)"><g><path d="M 0.335938 -2.070312 L 0.0390625 -2.070312 L 0.0390625 0 L 1.3125 0 L 1.3125 -0.300781 L 0.335938 -0.300781 Z M 0.335938 -2.070312 "/></g></g></g><g fill="#ffffff" fill-opacity="1"><g transform="translate(32.965771, 18.637694)"><g><path d="M 1.535156 0.0195312 L 1.757812 0.0195312 L 2.445312 -2.070312 L 2.132812 -2.070312 C 1.976562 -1.597656 1.796875 -1.070312 1.632812 -0.578125 L 1.296875 -1.542969 L 1.058594 -1.542969 L 0.714844 -0.574219 L 0.222656 -2.070312 L -0.0898438 -2.070312 L 0.601562 0.0195312 L 0.824219 0.0195312 C 0.929688 -0.296875 1.058594 -0.648438 1.175781 -0.984375 Z M 1.535156 0.0195312 "/></g></g></g><g fill="#ffffff" fill-opacity="1"><g transform="translate(35.486031, 18.637694)"><g><path d="M 0.335938 -0.886719 L 1.277344 -0.886719 L 1.277344 -1.1875 L 0.335938 -1.1875 L 0.335938 -1.769531 L 1.296875 -1.769531 L 1.296875 -2.070312 L 0.0351562 -2.070312 L 0.0351562 0 L 1.300781 0 L 1.300781 -0.300781 L 0.335938 -0.300781 Z M 0.335938 -0.886719 "/></g></g></g><g fill="#ffffff" fill-opacity="1"><g transform="translate(36.872028, 18.637694)"><g><path d="M 0.34375 -1.785156 L 0.910156 -1.785156 C 1.234375 -1.785156 1.230469 -1.246094 0.902344 -1.246094 L 0.34375 -1.246094 Z M 0.046875 -2.070312 L 0.046875 0 L 0.984375 0 C 1.378906 0 1.585938 -0.3125 1.585938 -0.625 C 1.585938 -0.820312 1.5 -1.039062 1.261719 -1.140625 C 1.46875 -1.289062 1.496094 -1.523438 1.414062 -1.730469 C 1.335938 -1.921875 1.167969 -2.070312 0.910156 -2.070312 Z M 0.34375 -0.949219 L 0.984375 -0.949219 C 1.183594 -0.949219 1.285156 -0.785156 1.285156 -0.621094 C 1.285156 -0.460938 1.183594 -0.289062 0.984375 -0.289062 L 0.34375 -0.289062 Z M 0.34375 -0.949219 "/></g></g></g><g fill="#ffffff" fill-opacity="1"><g transform="translate(38.560098, 18.637694)"><g/></g></g><g fill="#ffffff" fill-opacity="1"><g transform="translate(39.602556, 18.637694)"><g><path d="M 0.0429688 -2.074219 L 0.0429688 0 L 0.34375 0 L 0.34375 -0.691406 L 0.800781 -0.691406 C 1.246094 -0.691406 1.472656 -1.035156 1.472656 -1.378906 C 1.472656 -1.726562 1.246094 -2.074219 0.800781 -2.074219 Z M 0.34375 -0.984375 L 0.34375 -1.769531 L 0.800781 -1.769531 C 1.050781 -1.769531 1.175781 -1.574219 1.175781 -1.378906 C 1.175781 -1.183594 1.050781 -0.984375 0.800781 -0.984375 Z M 0.34375 -0.984375 "/></g></g></g><g fill="#ffffff" fill-opacity="1"><g transform="translate(41.163283, 18.637694)"><g><path d="M 0.816406 -1.621094 L 1.070312 -0.890625 L 0.558594 -0.890625 Z M 1.4375 0 L 1.757812 0 L 0.925781 -2.101562 L 0.703125 -2.101562 L -0.128906 0 L 0.195312 0 C 0.261719 -0.171875 0.363281 -0.421875 0.445312 -0.609375 L 1.1875 -0.609375 Z M 1.4375 0 "/></g></g></g><g fill="#ffffff" fill-opacity="1"><g transform="translate(42.904661, 18.637694)"><g><path d="M 0.347656 0 L 0.347656 -1.449219 L 1.347656 0 L 1.585938 0 L 1.585938 -2.074219 L 1.289062 -2.074219 L 1.289062 -0.613281 L 0.277344 -2.074219 L 0.046875 -2.074219 L 0.046875 0 Z M 0.347656 0 "/></g></g></g><g fill="#ffffff" fill-opacity="1"><g transform="translate(44.646039, 18.637694)"><g><path d="M 0.335938 -0.886719 L 1.277344 -0.886719 L 1.277344 -1.1875 L 0.335938 -1.1875 L 0.335938 -1.769531 L 1.296875 -1.769531 L 1.296875 -2.070312 L 0.0351562 -2.070312 L 0.0351562 0 L 1.300781 0 L 1.300781 -0.300781 L 0.335938 -0.300781 Z M 0.335938 -0.886719 "/></g></g></g><g fill="#ffffff" fill-opacity="1"><g transform="translate(46.032036, 18.637694)"><g><path d="M 0.335938 -2.070312 L 0.0390625 -2.070312 L 0.0390625 0 L 1.3125 0 L 1.3125 -0.300781 L 0.335938 -0.300781 Z M 0.335938 -2.070312 "/></g></g></g></svg>